<svg width="89" height="22" viewBox="0 0 89 22" fill="none" xmlns="http://www.w3.org/2000/svg">
<path d="M30.9418 5.154V21.8547H35.6519V9.88134H39.5888V5.154H30.9418Z" fill="white"/>
<path d="M19.0942 4.53409C14.3364 4.53409 10.4802 8.40368 10.4802 13.1778C10.4802 17.9519 14.3364 21.8215 19.0942 21.8215C23.8519 21.8215 27.7082 17.9519 27.7082 13.1778C27.7082 8.40368 23.8509 4.53409 19.0942 4.53409ZM19.0942 17.5426C16.692 17.5426 14.7444 15.5883 14.7444 13.1778C14.7444 10.7674 16.692 8.81306 19.0942 8.81306C21.4963 8.81306 23.4439 10.7674 23.4439 13.1778C23.4439 15.5883 21.4963 17.5426 19.0942 17.5426Z" fill="white"/>
<path d="M4.92593 0.376953H0.214844V21.8547H4.92593V9.88134H8.4335V5.154H4.92593V0.376953Z" fill="white"/>
<path d="M49.5356 4.53409C44.7778 4.53409 40.9216 8.40368 40.9216 13.1778C40.9216 17.9519 44.7778 21.8215 49.5356 21.8215C54.2933 21.8215 58.1496 17.9519 58.1496 13.1778C58.1486 8.40368 54.2923 4.53409 49.5356 4.53409ZM49.5356 17.5426C47.1334 17.5426 45.1858 15.5883 45.1858 13.1778C45.1858 10.7674 47.1334 8.81306 49.5356 8.81306C51.9377 8.81306 53.8853 10.7674 53.8853 13.1778C53.8853 15.5883 51.9377 17.5426 49.5356 17.5426Z" fill="white"/>
<path d="M80.2023 4.53409C75.4456 4.53409 71.5883 8.40368 71.5883 13.1778C71.5883 17.9519 75.4446 21.8215 80.2023 21.8215C84.96 21.8215 88.8163 17.9519 88.8163 13.1778C88.8163 8.40368 84.96 4.53409 80.2023 4.53409ZM80.2023 17.5426C77.8001 17.5426 75.8526 15.5883 75.8526 13.1778C75.8526 10.7674 77.8001 8.81306 80.2023 8.81306C82.6045 8.81306 84.552 10.7674 84.552 13.1778C84.552 15.5883 82.6045 17.5426 80.2023 17.5426Z" fill="white"/>
<path d="M65.8991 0.438359H61.1889V21.8547H69.0929V17.1273H65.8991V9.86672H69.0929V5.13938H65.8991V0.438359Z" fill="white"/>
</svg>
